<svg width="594" height="470" viewBox="0 0 594 470" fill="none" xmlns="http://www.w3.org/2000/svg">
<mask id="mask0_2201_530" style="mask-type:luminance" maskUnits="userSpaceOnUse" x="0" y="399" width="303" height="70">
<path d="M0.393066 399.024H302.999V468.818H0.393066V399.024Z" fill="white"/>
</mask>
<g mask="url(#mask0_2201_530)">
<path d="M0.393066 399.024H302.986V468.818H0.393066V399.024Z" fill="#5E42A6"/>
</g>
<mask id="mask1_2201_530" style="mask-type:luminance" maskUnits="userSpaceOnUse" x="303" y="2" width="291" height="71">
<path d="M303.276 2.29639H593.854V72.0901H303.276V2.29639Z" fill="white"/>
</mask>
<g mask="url(#mask1_2201_530)">
<path d="M303.276 2.29639H593.841V72.0901H303.276V2.29639Z" fill="#5E42A6"/>
</g>
<path d="M0 283.741H60.6236V109.907L179.156 283.741H230.933V0H170.309V172.666L51.7764 0H0V283.741Z" fill="#5E42A6"/>
<path d="M480.259 469.198C550.659 469.198 593.854 434.9 593.854 377.47C593.854 329.156 562.873 300.441 489.142 282.666C443.838 271.841 428.07 259.99 428.07 241.302C428.07 221.362 445.503 209.169 473.93 209.169C504.799 209.169 523.454 225.692 523.454 253.039H588.302C588.302 191.735 543.441 152.651 473.041 152.651C404.862 152.651 362.445 186.949 362.445 242.67C362.445 292.237 395.091 321.75 464.602 337.019C506.576 346.135 525.564 358.783 525.564 380.091C525.564 400.488 507.797 412.224 479.815 412.224C447.169 412.224 425.96 395.36 425.96 366.189H359.891C359.891 429.203 405.64 469.198 480.259 469.198Z" fill="#5E42A6"/>
</svg>
